# xmcd CD database file
# Copyright (C) 1997 Ti Kan
#
# Track frame offsets:
#  182
#  23640
#  42665
#  61467
#  81907
#  100940
#  120877
#  138225
#  161377
#  182385
#  200207
#  218152
#  238152
#  258130
#
# Disc length: 3697 seconds
#
# Revision: 2
# Processed by: cddbd v1.4PL0 Copyright (c) Steve Scherf et al.
# Submitted via: Gronk 1.4
#
DISCID=bb0e6f0e
DTITLE=Lisa Keith - Walkin' in the Sun
DYEAR=1900
DGENRE=blues
TTITLE0=Love Isn't Body ... It's Soul
TTITLE1=Better than You
TTITLE2=Love is Alive and Well
TTITLE3=I'm in Love
TTITLE4=Days Like These
TTITLE5=A Love for all Seasons
TTITLE6=World of Joy
TTITLE7=Sunshine Daydreamin'
TTITLE8=Closer
TTITLE9=Love Me Like You Do
TTITLE10=Free as You Wanna Be
TTITLE11=True to You
TTITLE12=Walkin' in the Sun
TTITLE13=Adonai
EXTD=
EXTT0=
EXTT1=
EXTT2=
EXTT3=
EXTT4=
EXTT5=
EXTT6=
EXTT7=
EXTT8=
EXTT9=
EXTT10=
EXTT11=
EXTT12=
EXTT13=
PLAYORDER=
